<svg width="1200" height="900" viewBox="0 0 1200 900" fill="none" xmlns="http://www.w3.org/2000/svg" role="img" aria-label="BudgetBuddy dashboard and mobile preview">
  <defs>
    <linearGradient id="bg" x1="120" y1="60" x2="1040" y2="820" gradientUnits="userSpaceOnUse"><stop stop-color="#DBEAFE"/><stop offset="0.48" stop-color="#ECFDF5"/><stop offset="1" stop-color="#CCFBF1"/></linearGradient>
    <linearGradient id="accent" x1="0" y1="0" x2="1" y2="1"><stop stop-color="#2563EB"/><stop offset="1" stop-color="#10B981"/></linearGradient>
    <filter id="soft" x="0" y="0" width="1200" height="900" color-interpolation-filters="sRGB" filterUnits="userSpaceOnUse"><feDropShadow dx="0" dy="28" stdDeviation="34" flood-color="#0F172A" flood-opacity="0.18"/></filter>
  </defs>
  <rect width="1200" height="900" rx="56" fill="url(#bg)"/>
  <circle cx="104" cy="130" r="72" fill="#60A5FA" opacity="0.25"/>
  <circle cx="1030" cy="730" r="118" fill="#34D399" opacity="0.22"/>
  <g filter="url(#soft)">
    <rect x="128" y="124" width="742" height="538" rx="34" fill="white"/>
    <rect x="128" y="124" width="742" height="76" rx="34" fill="#F8FAFC"/>
    <circle cx="178" cy="162" r="15" fill="#2563EB"/><circle cx="222" cy="162" r="15" fill="#10B981"/><circle cx="266" cy="162" r="15" fill="#F59E0B"/>
    <rect x="178" y="242" width="258" height="128" rx="24" fill="#EFF6FF"/>
    <rect x="466" y="242" width="164" height="128" rx="24" fill="#ECFDF5"/>
    <rect x="660" y="242" width="140" height="128" rx="24" fill="#F5F3FF"/>
    <rect x="206" y="274" width="112" height="18" rx="9" fill="#64748B" opacity="0.45"/>
    <rect x="206" y="306" width="170" height="32" rx="16" fill="#2563EB" opacity="0.92"/>
    <rect x="494" y="274" width="88" height="18" rx="9" fill="#047857" opacity="0.45"/>
    <rect x="494" y="306" width="86" height="32" rx="16" fill="#10B981"/>
    <rect x="688" y="274" width="72" height="18" rx="9" fill="#6D28D9" opacity="0.4"/>
    <rect x="688" y="306" width="66" height="32" rx="16" fill="#8B5CF6"/>
    <rect x="178" y="410" width="310" height="196" rx="26" fill="#F8FAFC"/>
    <path d="M218 552c38-118 98-142 152-98 36 29 56 21 78-24" stroke="url(#accent)" stroke-width="18" stroke-linecap="round"/>
    <rect x="532" y="410" width="268" height="196" rx="26" fill="#F8FAFC"/>
    <circle cx="630" cy="508" r="62" stroke="#2563EB" stroke-width="24" stroke-dasharray="220 170"/><circle cx="630" cy="508" r="62" stroke="#10B981" stroke-width="24" stroke-dasharray="110 280" stroke-dashoffset="-220"/><circle cx="630" cy="508" r="62" stroke="#F59E0B" stroke-width="24" stroke-dasharray="60 330" stroke-dashoffset="-330"/>
    <rect x="714" y="462" width="52" height="14" rx="7" fill="#CBD5E1"/><rect x="714" y="496" width="66" height="14" rx="7" fill="#CBD5E1"/><rect x="714" y="530" width="44" height="14" rx="7" fill="#CBD5E1"/>
  </g>
  <g filter="url(#soft)">
    <rect x="768" y="270" width="286" height="512" rx="48" fill="#0F172A"/>
    <rect x="788" y="292" width="246" height="468" rx="34" fill="white"/>
    <rect x="812" y="324" width="116" height="16" rx="8" fill="#94A3B8"/>
    <rect x="812" y="360" width="190" height="70" rx="20" fill="#ECFDF5"/>
    <rect x="832" y="384" width="78" height="12" rx="6" fill="#047857" opacity="0.5"/><rect x="832" y="404" width="108" height="16" rx="8" fill="#10B981"/>
    <rect x="812" y="452" width="190" height="38" rx="19" fill="#EFF6FF"/><rect x="812" y="506" width="190" height="38" rx="19" fill="#F8FAFC"/><rect x="812" y="560" width="190" height="38" rx="19" fill="#F8FAFC"/>
    <rect x="832" y="465" width="92" height="12" rx="6" fill="#2563EB" opacity="0.62"/><rect x="832" y="519" width="118" height="12" rx="6" fill="#64748B" opacity="0.36"/><rect x="832" y="573" width="100" height="12" rx="6" fill="#64748B" opacity="0.36"/>
    <rect x="812" y="632" width="190" height="58" rx="20" fill="#F0FDFA"/><path d="M840 662h134" stroke="#10B981" stroke-width="10" stroke-linecap="round"/>
  </g>
</svg>
